<svg xmlns="http://www.w3.org/2000/svg" xmlns:xlink="http://www.w3.org/1999/xlink" viewBox="0 0 500 200" width="500" height="200"><path d="M 51.250,35.719 C 51.123,40.352 51.750,40.219 52.250,44.719" stroke-width="5.062" stroke="red" fill="none" stroke-linecap="round"></path><path d="M 52.250,44.719 C 55.871,55.682 55.123,55.852 59.250,66.719" stroke-width="3.399" stroke="red" fill="none" stroke-linecap="round"></path><path d="M 59.250,66.719 C 63.454,80.162 63.371,80.182 67.250,93.719" stroke-width="2.878" stroke="red" fill="none" stroke-linecap="round"></path><path d="M 67.250,93.719 C 70.530,105.157 70.454,105.162 73.250,116.719" stroke-width="2.655" stroke="red" fill="none" stroke-linecap="round"></path><path d="M 73.250,116.719 C 74.495,122.185 74.530,122.157 75.250,127.719" stroke-width="3.326" stroke="red" fill="none" stroke-linecap="round"></path><path d="M 75.250,127.719 C 75.926,133.211 75.995,133.185 76.250,138.719" stroke-width="3.436" stroke="red" fill="none" stroke-linecap="round"></path><path d="M 76.250,138.719 C 76.250,145.469 76.426,141.711 76.250,144.719" stroke-width="4.349" stroke="red" fill="none" stroke-linecap="round"></path><path d="M 76.250,144.719 C 77.064,139.605 76.250,143.469 76.250,134.719" stroke-width="4.711" stroke="red" fill="none" stroke-linecap="round"></path><path d="M 76.250,134.719 C 74.484,127.644 75.064,127.605 72.250,120.719" stroke-width="3.463" stroke="red" fill="none" stroke-linecap="round"></path><path d="M 72.250,120.719 C 69.282,112.207 69.484,112.144 66.250,103.719" stroke-width="2.773" stroke="red" fill="none" stroke-linecap="round"></path><path d="M 66.250,103.719 C 61.914,91.156 61.782,91.207 57.250,78.719" stroke-width="2.459" stroke="red" fill="none" stroke-linecap="round"></path><path d="M 57.250,78.719 C 53.402,71.467 54.414,71.156 51.250,63.719" stroke-width="3.089" stroke="red" fill="none" stroke-linecap="round"></path><path d="M 51.250,63.719 C 47.631,52.994 48.402,53.467 47.250,42.719" stroke-width="2.871" stroke="red" fill="none" stroke-linecap="round"></path><path d="M 47.250,42.719 C 47.651,38.451 47.131,39.494 50.250,36.719" stroke-width="3.597" stroke="red" fill="none" stroke-linecap="round"></path><path d="M 50.250,36.719 C 56.070,33.877 55.151,33.451 62.250,32.719" stroke-width="3.265" stroke="red" fill="none" stroke-linecap="round"></path><path d="M 62.250,32.719 C 72.216,30.866 72.070,30.877 82.250,30.719" stroke-width="2.751" stroke="red" fill="none" stroke-linecap="round"></path><path d="M 82.250,30.719 C 106.354,29.970 106.216,30.366 130.250,31.719" stroke-width="2.027" stroke="red" fill="none" stroke-linecap="round"></path><path d="M 130.250,31.719 C 147.505,33.091 147.354,32.970 164.250,36.719" stroke-width="1.853" stroke="red" fill="none" stroke-linecap="round"></path><path d="M 164.250,36.719 C 177.605,39.833 177.505,39.591 190.250,44.719" stroke-width="2.060" stroke="red" fill="none" stroke-linecap="round"></path><path d="M 190.250,44.719 C 200.907,47.844 199.605,48.333 208.250,53.719" stroke-width="2.729" stroke="red" fill="none" stroke-linecap="round"></path><path d="M 208.250,53.719 C 211.219,57.490 210.907,55.844 210.250,60.719" stroke-width="3.545" stroke="red" fill="none" stroke-linecap="round"></path><path d="M 210.250,60.719 C 207.847,69.055 208.219,67.490 202.250,73.719" stroke-width="3.236" stroke="red" fill="none" stroke-linecap="round"></path><path d="M 202.250,73.719 C 194.503,77.913 195.847,79.055 186.250,80.719" stroke-width="3.119" stroke="red" fill="none" stroke-linecap="round"></path><path d="M 186.250,80.719 C 169.340,86.058 169.503,86.413 152.250,90.719" stroke-width="2.148" stroke="red" fill="none" stroke-linecap="round"></path><path d="M 152.250,90.719 C 141.720,93.101 141.840,93.558 131.250,95.719" stroke-width="2.369" stroke="red" fill="none" stroke-linecap="round"></path><path d="M 131.250,95.719 C 118.617,97.993 125.720,97.101 120.250,98.719" stroke-width="3.224" stroke="red" fill="none" stroke-linecap="round"></path><path d="M 120.250,98.719 C 130.246,99.319 123.117,99.993 140.250,99.719" stroke-width="3.532" stroke="red" fill="none" stroke-linecap="round"></path><path d="M 140.250,99.719 C 155.248,100.290 155.246,100.319 170.250,100.719" stroke-width="2.258" stroke="red" fill="none" stroke-linecap="round"></path><path d="M 170.250,100.719 C 190.297,100.472 190.248,101.290 210.250,101.719" stroke-width="1.818" stroke="red" fill="none" stroke-linecap="round"></path><path d="M 210.250,101.719 C 230.331,103.121 230.297,102.972 250.250,105.719" stroke-width="1.713" stroke="red" fill="none" stroke-linecap="round"></path><path d="M 250.250,105.719 C 264.848,107.773 264.831,107.621 279.250,110.719" stroke-width="1.892" stroke="red" fill="none" stroke-linecap="round"></path><path d="M 279.250,110.719 C 287.763,111.305 286.848,112.273 294.250,114.719" stroke-width="2.521" stroke="red" fill="none" stroke-linecap="round"></path><path d="M 294.250,114.719 C 298.250,117.549 297.263,116.305 298.250,120.719" stroke-width="3.440" stroke="red" fill="none" stroke-linecap="round"></path><path d="M 298.250,120.719 C 297.760,126.479 298.250,125.049 294.250,129.719" stroke-width="3.469" stroke="red" fill="none" stroke-linecap="round"></path><path d="M 294.250,129.719 C 283.599,137.799 284.760,138.479 272.250,144.719" stroke-width="2.655" stroke="red" fill="none" stroke-linecap="round"></path><path d="M 272.250,144.719 C 262.984,150.226 263.099,150.299 253.250,154.719" stroke-width="2.473" stroke="red" fill="none" stroke-linecap="round"></path><path d="M 253.250,154.719 C 243.524,159.592 243.484,159.226 233.250,162.719" stroke-width="2.534" stroke="red" fill="none" stroke-linecap="round"></path><path d="M 233.250,162.719 C 220.213,165.576 220.524,166.592 207.250,168.719" stroke-width="2.623" stroke="red" fill="none" stroke-linecap="round"></path><path d="M 207.250,168.719 C 199.477,172.109 203.713,169.576 200.250,170.719" stroke-width="3.491" stroke="red" fill="none" stroke-linecap="round"></path><path d="M 200.250,170.719 C 205.905,164.795 201.977,167.609 212.250,159.719" stroke-width="3.986" stroke="red" fill="none" stroke-linecap="round"></path><path d="M 212.250,159.719 C 221.018,152.874 220.905,152.795 230.250,146.719" stroke-width="2.685" stroke="red" fill="none" stroke-linecap="round"></path><path d="M 230.250,146.719 C 242.364,139.395 242.018,138.874 254.250,131.719" stroke-width="2.192" stroke="red" fill="none" stroke-linecap="round"></path><path d="M 254.250,131.719 C 266.897,124.549 266.364,123.895 278.250,115.719" stroke-width="2.313" stroke="red" fill="none" stroke-linecap="round"></path><path d="M 278.250,115.719 C 290.343,107.174 289.397,107.049 299.250,96.719" stroke-width="2.324" stroke="red" fill="none" stroke-linecap="round"></path><path d="M 299.250,96.719 C 301.950,92.450 301.843,93.674 301.250,88.719" stroke-width="3.186" stroke="red" fill="none" stroke-linecap="round"></path><path d="M 301.250,88.719 C 300.051,82.719 300.450,84.450 296.250,80.719" stroke-width="3.765" stroke="red" fill="none" stroke-linecap="round"></path><path d="M 296.250,80.719 C 289.291,79.275 290.551,77.719 282.250,78.719" stroke-width="3.251" stroke="red" fill="none" stroke-linecap="round"></path><path d="M 282.250,78.719 C 270.185,76.841 270.291,77.775 258.250,77.719" stroke-width="2.478" stroke="red" fill="none" stroke-linecap="round"></path><path d="M 258.250,77.719 C 235.532,78.319 236.185,79.341 214.250,83.719" stroke-width="1.916" stroke="red" fill="none" stroke-linecap="round"></path><path d="M 214.250,83.719 C 201.405,87.465 202.032,86.819 191.250,94.719" stroke-width="2.187" stroke="red" fill="none" stroke-linecap="round"></path><path d="M 191.250,94.719 C 183.212,100.796 183.905,99.965 179.250,108.719" stroke-width="2.469" stroke="red" fill="none" stroke-linecap="round"></path><path d="M 179.250,108.719 C 176.027,116.114 176.212,114.796 177.250,122.719" stroke-width="2.909" stroke="red" fill="none" stroke-linecap="round"></path><path d="M 177.250,122.719 C 179.513,130.271 178.527,129.614 184.250,135.719" stroke-width="2.979" stroke="red" fill="none" stroke-linecap="round"></path><path d="M 184.250,135.719 C 190.077,141.922 189.513,141.771 197.250,145.719" stroke-width="2.835" stroke="red" fill="none" stroke-linecap="round"></path><path d="M 197.250,145.719 C 207.667,149.963 207.077,150.922 218.250,153.719" stroke-width="2.798" stroke="red" fill="none" stroke-linecap="round"></path></svg>